<svg xmlns="http://www.w3.org/2000/svg" width="933.333" height="933.333" preserveAspectRatio="xMidYMid meet" version="1.0" viewBox="0 0 700 700"><metadata>Created by potrace 1.14, written by Peter Selinger 2001-2017</metadata><g fill="#000" stroke="none"><path d="M1290 3690 l0 -2642 1113 7 c1091 6 1553 15 1792 36 433 38 773 186 1040 454 211 211 343 459 404 760 37 184 73 618 92 1105 18 459 -5 1190 -46 1460 -43 291 -133 535 -276 751 -77 117 -262 303 -374 377 -232 154 -526 254 -855 292 -53 6 -463 15 -935 20 -462 5 -1091 12 -1397 15 l-558 6 0 -2641z m2823 2015 c299 -39 541 -144 715 -309 214 -204 327 -464 362 -836 15 -159 15 -1577 0 -1730 -36 -357 -147 -635 -336 -839 -150 -162 -370 -271 -609 -300 -250 -30 -692 -48 -1490 -61 -357 -5 -692 -12 -742 -14 l-93 -4 0 2054 0 2054 1039 0 c867 0 1059 -2 1154 -15z" transform="translate(0.000000,700.000000) scale(0.100000,-0.100000)"/></g></svg>