<svg xmlns="http://www.w3.org/2000/svg" viewBox="0 0 512 512">
  <defs>
    <linearGradient id="bg" x1="96" x2="416" y1="64" y2="448" gradientUnits="userSpaceOnUse">
      <stop stop-color="#f97316"/>
      <stop offset="1" stop-color="#facc15"/>
    </linearGradient>
  </defs>
  <rect width="512" height="512" rx="128" fill="url(#bg)"/>
  <g fill="#fff7ed" opacity=".95">
    <circle cx="256" cy="112" r="34"/>
    <circle cx="177" cy="140" r="32"/>
    <circle cx="335" cy="140" r="32"/>
    <circle cx="132" cy="211" r="34"/>
    <circle cx="380" cy="211" r="34"/>
    <circle cx="128" cy="297" r="34"/>
    <circle cx="384" cy="297" r="34"/>
    <circle cx="176" cy="372" r="32"/>
    <circle cx="336" cy="372" r="32"/>
    <circle cx="256" cy="400" r="34"/>
  </g>
  <path
    fill="#fff7ed"
    d="M256 126c-74 0-136 59-136 133 0 45 23 85 57 109l-19 74 70-38c9 2 19 4 28 4s19-2 28-4l70 38-19-74c34-24 57-64 57-109 0-74-62-133-136-133Z"
  />
  <g fill="#7c2d12">
    <circle cx="214" cy="236" r="18"/>
    <circle cx="298" cy="236" r="18"/>
    <path d="M256 262c-17 0-31 13-31 30 0 4 3 8 8 8h46c5 0 8-4 8-8 0-17-14-30-31-30Z"/>
    <path d="M210 327c13 21 29 33 46 33s33-12 46-33" fill="none" stroke="#7c2d12" stroke-linecap="round" stroke-width="20"/>
    <path d="M191 190c14-24 37-36 65-36s51 12 65 36" fill="none" stroke="#7c2d12" stroke-linecap="round" stroke-width="22"/>
  </g>
  <g fill="#fff7ed">
    <path d="m385 103 8 22 22 8-22 8-8 22-8-22-22-8 22-8Z"/>
    <path d="m121 334 6 16 16 6-16 6-6 16-6-16-16-6 16-6Z" opacity=".9"/>
  </g>
</svg>
